<?xml version="1.0" standalone="no"?>
<!DOCTYPE svg PUBLIC "-//W3C//DTD SVG 20010904//EN"
 "http://www.w3.org/TR/2001/REC-SVG-20010904/DTD/svg10.dtd">
<svg version="1.0" xmlns="http://www.w3.org/2000/svg"
 width="299.000000pt" height="168.000000pt" viewBox="0 0 299.000000 168.000000"
 preserveAspectRatio="xMidYMid meet">

<g transform="translate(0.000000,168.000000) scale(0.100000,-0.100000)"
fill="#000000" stroke="none">
<path d="M503 1362 c-17 -16 -34 -38 -37 -50 -4 -12 -15 -22 -24 -22 -16 -1
-16 -1 0 -11 18 -10 166 -15 208 -7 50 10 17 100 -41 112 -55 11 -74 7 -106
-22z m111 -14 c25 -35 21 -68 -8 -68 -19 0 -25 7 -34 40 -5 21 -7 42 -4 45 12
11 32 4 46 -17z"/>
<path d="M587 1208 c14 -16 8 -28 -15 -28 -8 0 -12 6 -8 15 4 12 -3 15 -29 15
-18 0 -37 -5 -41 -12 -4 -7 -3 -8 5 -4 6 4 14 0 17 -8 9 -23 104 -18 104 5 0
4 -10 14 -22 20 -20 11 -21 10 -11 -3z"/>
<path d="M530 1150 c0 -5 -3 -9 -7 -9 -20 3 -23 -3 -13 -21 6 -12 7 -20 1 -20
-18 0 -71 -61 -71 -82 0 -16 -5 -19 -22 -15 -22 6 -22 5 -5 -8 22 -16 174 -30
214 -21 16 4 40 10 56 13 20 4 27 11 27 30 0 39 -29 84 -64 98 -18 8 -38 21
-46 29 -14 18 -70 22 -70 6z m50 -10 c0 -5 -2 -10 -4 -10 -3 0 -8 5 -11 10 -3
6 -1 10 4 10 6 0 11 -4 11 -10z m20 -20 c0 -5 -8 -10 -17 -10 -15 0 -16 2 -3
10 19 12 20 12 20 0z m25 -37 c18 -18 35 -56 35 -79 0 -9 -11 -14 -34 -14 -32
0 -34 3 -45 47 -10 37 -9 48 1 54 19 12 24 11 43 -8z"/>
<path d="M2526 1030 c-20 -22 -36 -46 -36 -53 0 -13 73 -37 115 -37 13 0 36 5
50 12 57 26 12 118 -58 118 -28 0 -42 -8 -71 -40z m114 -11 c6 -10 10 -27 10
-39 0 -16 -5 -21 -21 -18 -24 4 -55 74 -35 81 17 6 35 -3 46 -24z"/>
<path d="M616 921 c-3 -4 -30 -11 -60 -15 -63 -7 -86 -14 -86 -28 0 -5 4 -7 9
-4 12 8 42 -4 36 -14 -10 -16 50 -20 88 -7 52 19 65 33 37 42 -13 4 -19 12
-16 21 6 15 0 19 -8 5z m-3 -35 c3 -12 -30 -32 -39 -24 -11 12 5 40 21 36 9
-2 17 -7 18 -12z"/>
<path d="M2650 921 c0 -5 -19 -11 -42 -14 -49 -5 -101 -16 -107 -22 -2 -3 9
-10 26 -17 18 -8 28 -19 25 -27 -4 -13 22 -11 81 6 17 4 17 6 1 17 -15 11 -15
13 -1 19 19 7 42 47 27 47 -5 0 -10 -4 -10 -9z"/>
<path d="M530 819 c0 -6 -9 -8 -20 -4 -16 5 -20 2 -20 -18 0 -14 5 -27 12 -29
8 -3 7 -8 -3 -16 -74 -61 -95 -82 -110 -117 -10 -22 -15 -43 -11 -46 4 -3 53
-12 109 -19 74 -9 116 -10 155 -3 53 10 53 10 13 12 l-41 1 -17 68 c-21 84
-22 79 8 86 49 12 91 -35 106 -119 6 -34 8 -37 14 -18 4 13 12 20 18 16 5 -3
20 -7 32 -8 20 -3 21 0 15 35 -14 77 -54 121 -122 135 -16 3 -28 12 -28 20 0
8 -9 19 -19 25 -26 13 -91 13 -91 -1z m60 -9 c0 -5 -4 -10 -10 -10 -5 0 -10 5
-10 10 0 6 5 10 10 10 6 0 10 -4 10 -10z m28 -32 c-3 -7 -15 -14 -29 -16 -23
-2 -23 -2 -5 13 24 18 39 20 34 3z"/>
<path d="M321 639 c-1 -9 9 -24 22 -35 22 -19 22 -19 6 1 -9 11 -19 27 -22 35
-5 13 -6 13 -6 -1z"/>
<path d="M1608 542 c-85 -21 -108 -30 -108 -44 0 -9 -4 -20 -10 -23 -20 -12
-11 -97 15 -140 13 -23 22 -45 19 -48 -10 -10 -916 -8 -910 2 3 5 35 15 70 22
36 7 63 15 62 18 -2 3 12 7 31 8 20 1 40 6 46 12 5 5 15 7 22 5 7 -3 16 -1 19
4 3 6 16 8 28 4 16 -4 19 -2 13 8 -6 10 -4 12 7 7 19 -7 156 27 143 35 -14 9
-115 -13 -115 -24 0 -6 -6 -8 -14 -5 -14 6 -137 -22 -146 -32 -3 -3 -17 -6
-32 -6 -19 -1 -24 3 -17 11 11 13 -9 24 -44 24 -19 0 -17 4 15 30 20 17 46 45
57 64 21 34 29 63 10 36 -8 -11 -9 -8 -4 14 6 27 5 28 -12 16 -10 -8 -26 -23
-35 -35 -20 -23 -23 -9 -8 31 9 24 9 25 -5 14 -8 -7 -15 -18 -15 -24 0 -17
-48 -50 -90 -64 -19 -7 -71 -16 -115 -20 -68 -8 -82 -6 -93 7 -10 13 -12 13
-10 1 7 -38 104 -90 167 -90 23 0 23 -1 -13 -37 -20 -21 -51 -42 -69 -48 -34
-11 -48 -42 -25 -57 16 -11 1214 0 1342 12 130 13 137 30 19 45 l-52 7 26 39
c31 47 41 125 23 169 -12 29 -64 81 -78 79 -4 0 -55 -13 -114 -27z m133 -72
c10 -6 19 -21 19 -33 0 -25 -38 -43 -96 -46 -29 -1 -30 1 -26 30 3 20 12 33
23 36 11 3 19 9 19 14 0 12 37 11 61 -1z"/>
<path d="M1435 510 c-3 -5 -1 -10 4 -10 6 0 11 5 11 10 0 6 -2 10 -4 10 -3 0
-8 -4 -11 -10z"/>
<path d="M1390 500 c8 -5 20 -10 25 -10 6 0 3 5 -5 10 -8 5 -19 10 -25 10 -5
0 -3 -5 5 -10z"/>
<path d="M1355 490 c3 -5 11 -10 16 -10 6 0 7 5 4 10 -3 6 -11 10 -16 10 -6 0
-7 -4 -4 -10z"/>
<path d="M1265 470 c3 -5 10 -10 16 -10 5 0 9 5 9 10 0 6 -7 10 -16 10 -8 0
-12 -4 -9 -10z"/>
<path d="M1318 473 c7 -3 16 -2 19 1 4 3 -2 6 -13 5 -11 0 -14 -3 -6 -6z"/>
<path d="M1195 456 c-16 -7 -35 -11 -42 -9 -6 2 -14 0 -17 -6 -4 -6 -14 -7
-23 -4 -11 4 -14 3 -9 -6 5 -7 15 -9 25 -6 9 4 23 8 31 9 8 1 27 8 42 14 15 6
36 9 45 6 15 -5 16 -4 3 5 -18 13 -18 13 -55 -3z"/>
<path d="M1070 420 c8 -5 20 -10 25 -10 6 0 3 5 -5 10 -8 5 -19 10 -25 10 -5
0 -3 -5 5 -10z"/>
</g>
</svg>
